# xmcd
#
# Track frame offsets:
#	150
#	12160
#	24155
#	38287
#	53490
#	66035
#	78195
#	91340
#	102292
#	118392
#	132790
#	146772
#	161742
#	175175
#	188957
#
# Disc length: 2765 seconds
#
# Revision: 2
# Processed by: cddbd v1.5.2PL0 Copyright (c) Steve Scherf et al.
# Submitted via: audiograbber 1.83.01
#
DISCID=b70acb0f
DTITLE=Various Artist - SC8365 Desperado's Vol.1
DYEAR=1900
DGENRE=Karaoke
TTITLE0=Waylon Jennings - Good Ol' Boys (Dukes Of Hazzard Theme)
TTITLE1=Waylon Jennings - Only Daddy That'll Walk the Line
TTITLE2=Merle Haggard - Swinging Doors
TTITLE3=Merle Haggard - Branded Man
TTITLE4=George Jones - Tender Years
TTITLE5=George Jones - Why Baby Why
TTITLE6=Merle Haggad - I Talke Alof of Pride in What I Am
TTITLE7=Waylon Jennings - The Worlitzer Prize (I Don't Get Over You)
TTITLE8=George Jone - Who's Gonna Fill THere Shoes
TTITLE9=George Jones - The Window up Above
TTITLE10=George Jones - Still Doin' Time
TTITLE11=Merle Haggard - The Fugitive
TTITLE12=Waylon Jennings - Rainy Day Woman
TTITLE13=Merle Haggard - Sing Me Back Home
TTITLE14=Waylon Jennings - Lucille (You Won't Do Your Daddys Will)
EXTD=
EXTT0=
EXTT1=
EXTT2=
EXTT3=
EXTT4=
EXTT5=
EXTT6=
EXTT7=
EXTT8=
EXTT9=
EXTT10=
EXTT11=
EXTT12=
EXTT13=
EXTT14=
PLAYORDER=
